0
SECTION
2
HEADER
9
$ACADVER
1
AC1009
9
$INSUNITS
70
6
9
$EXTMIN
10
0.0000
20
-3.0000
30
0.0
9
$EXTMAX
10
50.8500
20
30.2480
30
0.0
0
ENDSEC
0
SECTION
2
TABLES
0
TABLE
2
LAYER
70
6
0
LAYER
2
ENV-PLOT-BOUNDARY
70
0
62
7
6
CONTINUOUS
0
LAYER
2
ENV-SETBACK-LINE
70
0
62
4
6
CONTINUOUS
0
LAYER
2
ENV-ENVELOPE-PODIUM
70
0
62
3
6
CONTINUOUS
0
LAYER
2
ENV-ENVELOPE-TOWER
70
0
62
3
6
CONTINUOUS
0
LAYER
2
ENV-ASSUMED
70
0
62
2
6
CONTINUOUS
0
LAYER
2
ENV-ANNOTATION
70
0
62
8
6
CONTINUOUS
0
ENDTAB
0
ENDSEC
0
SECTION
2
ENTITIES
0
POLYLINE
8
ENV-PLOT-BOUNDARY
66
1
70
1
10
0.0
20
0.0
30
0.0
0
VERTEX
8
ENV-PLOT-BOUNDARY
10
0.0000
20
0.0000
30
0.0
0
VERTEX
8
ENV-PLOT-BOUNDARY
10
50.8500
20
0.0000
30
0.0
0
VERTEX
8
ENV-PLOT-BOUNDARY
10
50.8500
20
26.8480
30
0.0
0
VERTEX
8
ENV-PLOT-BOUNDARY
10
0.0000
20
26.8480
30
0.0
0
SEQEND
8
ENV-PLOT-BOUNDARY
0
POLYLINE
8
ENV-ASSUMED
66
1
70
1
10
0.0
20
0.0
30
0.0
0
VERTEX
8
ENV-ASSUMED
10
0.0000
20
0.0000
30
0.0
0
VERTEX
8
ENV-ASSUMED
10
6.0000
20
0.0000
30
0.0
0
VERTEX
8
ENV-ASSUMED
10
6.0000
20
23.6260
30
0.0
0
VERTEX
8
ENV-ASSUMED
10
0.0000
20
23.6260
30
0.0
0
SEQEND
8
ENV-ASSUMED
0
POLYLINE
8
ENV-ENVELOPE-PODIUM
66
1
70
1
10
0.0
20
0.0
30
0.0
0
VERTEX
8
ENV-ENVELOPE-PODIUM
10
6.0000
20
0.0000
30
0.0
0
VERTEX
8
ENV-ENVELOPE-PODIUM
10
8.5000
20
0.0000
30
0.0
0
VERTEX
8
ENV-ENVELOPE-PODIUM
10
8.5000
20
5.5000
30
0.0
0
VERTEX
8
ENV-ENVELOPE-PODIUM
10
6.0000
20
5.5000
30
0.0
0
SEQEND
8
ENV-ENVELOPE-PODIUM
0
POLYLINE
8
ENV-ENVELOPE-PODIUM
66
1
70
1
10
0.0
20
0.0
30
0.0
0
VERTEX
8
ENV-ENVELOPE-PODIUM
10
8.8000
20
0.0000
30
0.0
0
VERTEX
8
ENV-ENVELOPE-PODIUM
10
11.3000
20
0.0000
30
0.0
0
VERTEX
8
ENV-ENVELOPE-PODIUM
10
11.3000
20
5.5000
30
0.0
0
VERTEX
8
ENV-ENVELOPE-PODIUM
10
8.8000
20
5.5000
30
0.0
0
SEQEND
8
ENV-ENVELOPE-PODIUM
0
POLYLINE
8
ENV-ENVELOPE-PODIUM
66
1
70
1
10
0.0
20
0.0
30
0.0
0
VERTEX
8
ENV-ENVELOPE-PODIUM
10
11.6000
20
0.0000
30
0.0
0
VERTEX
8
ENV-ENVELOPE-PODIUM
10
14.1000
20
0.0000
30
0.0
0
VERTEX
8
ENV-ENVELOPE-PODIUM
10
14.1000
20
5.5000
30
0.0
0
VERTEX
8
ENV-ENVELOPE-PODIUM
10
11.6000
20
5.5000
30
0.0
0
SEQEND
8
ENV-ENVELOPE-PODIUM
0
POLYLINE
8
ENV-ENVELOPE-PODIUM
66
1
70
1
10
0.0
20
0.0
30
0.0
0
VERTEX
8
ENV-ENVELOPE-PODIUM
10
14.4000
20
0.0000
30
0.0
0
VERTEX
8
ENV-ENVELOPE-PODIUM
10
16.9000
20
0.0000
30
0.0
0
VERTEX
8
ENV-ENVELOPE-PODIUM
10
16.9000
20
5.5000
30
0.0
0
VERTEX
8
ENV-ENVELOPE-PODIUM
10
14.4000
20
5.5000
30
0.0
0
SEQEND
8
ENV-ENVELOPE-PODIUM
0
POLYLINE
8
ENV-ENVELOPE-PODIUM
66
1
70
1
10
0.0
20
0.0
30
0.0
0
VERTEX
8
ENV-ENVELOPE-PODIUM
10
17.2000
20
0.0000
30
0.0
0
VERTEX
8
ENV-ENVELOPE-PODIUM
10
19.7000
20
0.0000
30
0.0
0
VERTEX
8
ENV-ENVELOPE-PODIUM
10
19.7000
20
5.5000
30
0.0
0
VERTEX
8
ENV-ENVELOPE-PODIUM
10
17.2000
20
5.5000
30
0.0
0
SEQEND
8
ENV-ENVELOPE-PODIUM
0
POLYLINE
8
ENV-ENVELOPE-PODIUM
66
1
70
1
10
0.0
20
0.0
30
0.0
0
VERTEX
8
ENV-ENVELOPE-PODIUM
10
20.0000
20
0.0000
30
0.0
0
VERTEX
8
ENV-ENVELOPE-PODIUM
10
22.5000
20
0.0000
30
0.0
0
VERTEX
8
ENV-ENVELOPE-PODIUM
10
22.5000
20
5.5000
30
0.0
0
VERTEX
8
ENV-ENVELOPE-PODIUM
10
20.0000
20
5.5000
30
0.0
0
SEQEND
8
ENV-ENVELOPE-PODIUM
0
POLYLINE
8
ENV-ENVELOPE-PODIUM
66
1
70
1
10
0.0
20
0.0
30
0.0
0
VERTEX
8
ENV-ENVELOPE-PODIUM
10
22.8000
20
0.0000
30
0.0
0
VERTEX
8
ENV-ENVELOPE-PODIUM
10
25.3000
20
0.0000
30
0.0
0
VERTEX
8
ENV-ENVELOPE-PODIUM
10
25.3000
20
5.5000
30
0.0
0
VERTEX
8
ENV-ENVELOPE-PODIUM
10
22.8000
20
5.5000
30
0.0
0
SEQEND
8
ENV-ENVELOPE-PODIUM
0
POLYLINE
8
ENV-ENVELOPE-PODIUM
66
1
70
1
10
0.0
20
0.0
30
0.0
0
VERTEX
8
ENV-ENVELOPE-PODIUM
10
25.6000
20
0.0000
30
0.0
0
VERTEX
8
ENV-ENVELOPE-PODIUM
10
28.1000
20
0.0000
30
0.0
0
VERTEX
8
ENV-ENVELOPE-PODIUM
10
28.1000
20
5.5000
30
0.0
0
VERTEX
8
ENV-ENVELOPE-PODIUM
10
25.6000
20
5.5000
30
0.0
0
SEQEND
8
ENV-ENVELOPE-PODIUM
0
POLYLINE
8
ENV-ENVELOPE-PODIUM
66
1
70
1
10
0.0
20
0.0
30
0.0
0
VERTEX
8
ENV-ENVELOPE-PODIUM
10
28.4000
20
0.0000
30
0.0
0
VERTEX
8
ENV-ENVELOPE-PODIUM
10
30.9000
20
0.0000
30
0.0
0
VERTEX
8
ENV-ENVELOPE-PODIUM
10
30.9000
20
5.5000
30
0.0
0
VERTEX
8
ENV-ENVELOPE-PODIUM
10
28.4000
20
5.5000
30
0.0
0
SEQEND
8
ENV-ENVELOPE-PODIUM
0
POLYLINE
8
ENV-ENVELOPE-PODIUM
66
1
70
1
10
0.0
20
0.0
30
0.0
0
VERTEX
8
ENV-ENVELOPE-PODIUM
10
31.2000
20
0.0000
30
0.0
0
VERTEX
8
ENV-ENVELOPE-PODIUM
10
33.7000
20
0.0000
30
0.0
0
VERTEX
8
ENV-ENVELOPE-PODIUM
10
33.7000
20
5.5000
30
0.0
0
VERTEX
8
ENV-ENVELOPE-PODIUM
10
31.2000
20
5.5000
30
0.0
0
SEQEND
8
ENV-ENVELOPE-PODIUM
0
POLYLINE
8
ENV-ENVELOPE-PODIUM
66
1
70
1
10
0.0
20
0.0
30
0.0
0
VERTEX
8
ENV-ENVELOPE-PODIUM
10
34.0000
20
0.0000
30
0.0
0
VERTEX
8
ENV-ENVELOPE-PODIUM
10
36.5000
20
0.0000
30
0.0
0
VERTEX
8
ENV-ENVELOPE-PODIUM
10
36.5000
20
5.5000
30
0.0
0
VERTEX
8
ENV-ENVELOPE-PODIUM
10
34.0000
20
5.5000
30
0.0
0
SEQEND
8
ENV-ENVELOPE-PODIUM
0
POLYLINE
8
ENV-ENVELOPE-PODIUM
66
1
70
1
10
0.0
20
0.0
30
0.0
0
VERTEX
8
ENV-ENVELOPE-PODIUM
10
36.8000
20
0.0000
30
0.0
0
VERTEX
8
ENV-ENVELOPE-PODIUM
10
39.3000
20
0.0000
30
0.0
0
VERTEX
8
ENV-ENVELOPE-PODIUM
10
39.3000
20
5.5000
30
0.0
0
VERTEX
8
ENV-ENVELOPE-PODIUM
10
36.8000
20
5.5000
30
0.0
0
SEQEND
8
ENV-ENVELOPE-PODIUM
0
POLYLINE
8
ENV-ENVELOPE-PODIUM
66
1
70
1
10
0.0
20
0.0
30
0.0
0
VERTEX
8
ENV-ENVELOPE-PODIUM
10
39.6000
20
0.0000
30
0.0
0
VERTEX
8
ENV-ENVELOPE-PODIUM
10
42.1000
20
0.0000
30
0.0
0
VERTEX
8
ENV-ENVELOPE-PODIUM
10
42.1000
20
5.5000
30
0.0
0
VERTEX
8
ENV-ENVELOPE-PODIUM
10
39.6000
20
5.5000
30
0.0
0
SEQEND
8
ENV-ENVELOPE-PODIUM
0
POLYLINE
8
ENV-ENVELOPE-PODIUM
66
1
70
1
10
0.0
20
0.0
30
0.0
0
VERTEX
8
ENV-ENVELOPE-PODIUM
10
42.4000
20
0.0000
30
0.0
0
VERTEX
8
ENV-ENVELOPE-PODIUM
10
44.9000
20
0.0000
30
0.0
0
VERTEX
8
ENV-ENVELOPE-PODIUM
10
44.9000
20
5.5000
30
0.0
0
VERTEX
8
ENV-ENVELOPE-PODIUM
10
42.4000
20
5.5000
30
0.0
0
SEQEND
8
ENV-ENVELOPE-PODIUM
0
POLYLINE
8
ENV-ENVELOPE-PODIUM
66
1
70
1
10
0.0
20
0.0
30
0.0
0
VERTEX
8
ENV-ENVELOPE-PODIUM
10
45.2000
20
0.0000
30
0.0
0
VERTEX
8
ENV-ENVELOPE-PODIUM
10
47.7000
20
0.0000
30
0.0
0
VERTEX
8
ENV-ENVELOPE-PODIUM
10
47.7000
20
5.5000
30
0.0
0
VERTEX
8
ENV-ENVELOPE-PODIUM
10
45.2000
20
5.5000
30
0.0
0
SEQEND
8
ENV-ENVELOPE-PODIUM
0
POLYLINE
8
ENV-ENVELOPE-PODIUM
66
1
70
1
10
0.0
20
0.0
30
0.0
0
VERTEX
8
ENV-ENVELOPE-PODIUM
10
48.0000
20
0.0000
30
0.0
0
VERTEX
8
ENV-ENVELOPE-PODIUM
10
50.5000
20
0.0000
30
0.0
0
VERTEX
8
ENV-ENVELOPE-PODIUM
10
50.5000
20
5.5000
30
0.0
0
VERTEX
8
ENV-ENVELOPE-PODIUM
10
48.0000
20
5.5000
30
0.0
0
SEQEND
8
ENV-ENVELOPE-PODIUM
0
POLYLINE
8
ENV-SETBACK-LINE
66
1
70
1
10
0.0
20
0.0
30
0.0
0
VERTEX
8
ENV-SETBACK-LINE
10
6.0000
20
5.5000
30
0.0
0
VERTEX
8
ENV-SETBACK-LINE
10
50.8500
20
5.5000
30
0.0
0
VERTEX
8
ENV-SETBACK-LINE
10
50.8500
20
11.5000
30
0.0
0
VERTEX
8
ENV-SETBACK-LINE
10
6.0000
20
11.5000
30
0.0
0
SEQEND
8
ENV-SETBACK-LINE
0
POLYLINE
8
ENV-ENVELOPE-PODIUM
66
1
70
1
10
0.0
20
0.0
30
0.0
0
VERTEX
8
ENV-ENVELOPE-PODIUM
10
6.0000
20
11.5000
30
0.0
0
VERTEX
8
ENV-ENVELOPE-PODIUM
10
8.5000
20
11.5000
30
0.0
0
VERTEX
8
ENV-ENVELOPE-PODIUM
10
8.5000
20
17.0000
30
0.0
0
VERTEX
8
ENV-ENVELOPE-PODIUM
10
6.0000
20
17.0000
30
0.0
0
SEQEND
8
ENV-ENVELOPE-PODIUM
0
POLYLINE
8
ENV-ENVELOPE-PODIUM
66
1
70
1
10
0.0
20
0.0
30
0.0
0
VERTEX
8
ENV-ENVELOPE-PODIUM
10
8.8000
20
11.5000
30
0.0
0
VERTEX
8
ENV-ENVELOPE-PODIUM
10
11.3000
20
11.5000
30
0.0
0
VERTEX
8
ENV-ENVELOPE-PODIUM
10
11.3000
20
17.0000
30
0.0
0
VERTEX
8
ENV-ENVELOPE-PODIUM
10
8.8000
20
17.0000
30
0.0
0
SEQEND
8
ENV-ENVELOPE-PODIUM
0
POLYLINE
8
ENV-ENVELOPE-PODIUM
66
1
70
1
10
0.0
20
0.0
30
0.0
0
VERTEX
8
ENV-ENVELOPE-PODIUM
10
11.6000
20
11.5000
30
0.0
0
VERTEX
8
ENV-ENVELOPE-PODIUM
10
14.1000
20
11.5000
30
0.0
0
VERTEX
8
ENV-ENVELOPE-PODIUM
10
14.1000
20
17.0000
30
0.0
0
VERTEX
8
ENV-ENVELOPE-PODIUM
10
11.6000
20
17.0000
30
0.0
0
SEQEND
8
ENV-ENVELOPE-PODIUM
0
POLYLINE
8
ENV-ENVELOPE-PODIUM
66
1
70
1
10
0.0
20
0.0
30
0.0
0
VERTEX
8
ENV-ENVELOPE-PODIUM
10
14.4000
20
11.5000
30
0.0
0
VERTEX
8
ENV-ENVELOPE-PODIUM
10
16.9000
20
11.5000
30
0.0
0
VERTEX
8
ENV-ENVELOPE-PODIUM
10
16.9000
20
17.0000
30
0.0
0
VERTEX
8
ENV-ENVELOPE-PODIUM
10
14.4000
20
17.0000
30
0.0
0
SEQEND
8
ENV-ENVELOPE-PODIUM
0
POLYLINE
8
ENV-ENVELOPE-PODIUM
66
1
70
1
10
0.0
20
0.0
30
0.0
0
VERTEX
8
ENV-ENVELOPE-PODIUM
10
17.2000
20
11.5000
30
0.0
0
VERTEX
8
ENV-ENVELOPE-PODIUM
10
19.7000
20
11.5000
30
0.0
0
VERTEX
8
ENV-ENVELOPE-PODIUM
10
19.7000
20
17.0000
30
0.0
0
VERTEX
8
ENV-ENVELOPE-PODIUM
10
17.2000
20
17.0000
30
0.0
0
SEQEND
8
ENV-ENVELOPE-PODIUM
0
POLYLINE
8
ENV-ENVELOPE-PODIUM
66
1
70
1
10
0.0
20
0.0
30
0.0
0
VERTEX
8
ENV-ENVELOPE-PODIUM
10
20.0000
20
11.5000
30
0.0
0
VERTEX
8
ENV-ENVELOPE-PODIUM
10
22.5000
20
11.5000
30
0.0
0
VERTEX
8
ENV-ENVELOPE-PODIUM
10
22.5000
20
17.0000
30
0.0
0
VERTEX
8
ENV-ENVELOPE-PODIUM
10
20.0000
20
17.0000
30
0.0
0
SEQEND
8
ENV-ENVELOPE-PODIUM
0
POLYLINE
8
ENV-ENVELOPE-PODIUM
66
1
70
1
10
0.0
20
0.0
30
0.0
0
VERTEX
8
ENV-ENVELOPE-PODIUM
10
22.8000
20
11.5000
30
0.0
0
VERTEX
8
ENV-ENVELOPE-PODIUM
10
25.3000
20
11.5000
30
0.0
0
VERTEX
8
ENV-ENVELOPE-PODIUM
10
25.3000
20
17.0000
30
0.0
0
VERTEX
8
ENV-ENVELOPE-PODIUM
10
22.8000
20
17.0000
30
0.0
0
SEQEND
8
ENV-ENVELOPE-PODIUM
0
POLYLINE
8
ENV-ENVELOPE-PODIUM
66
1
70
1
10
0.0
20
0.0
30
0.0
0
VERTEX
8
ENV-ENVELOPE-PODIUM
10
25.6000
20
11.5000
30
0.0
0
VERTEX
8
ENV-ENVELOPE-PODIUM
10
28.1000
20
11.5000
30
0.0
0
VERTEX
8
ENV-ENVELOPE-PODIUM
10
28.1000
20
17.0000
30
0.0
0
VERTEX
8
ENV-ENVELOPE-PODIUM
10
25.6000
20
17.0000
30
0.0
0
SEQEND
8
ENV-ENVELOPE-PODIUM
0
POLYLINE
8
ENV-ENVELOPE-PODIUM
66
1
70
1
10
0.0
20
0.0
30
0.0
0
VERTEX
8
ENV-ENVELOPE-PODIUM
10
28.4000
20
11.5000
30
0.0
0
VERTEX
8
ENV-ENVELOPE-PODIUM
10
30.9000
20
11.5000
30
0.0
0
VERTEX
8
ENV-ENVELOPE-PODIUM
10
30.9000
20
17.0000
30
0.0
0
VERTEX
8
ENV-ENVELOPE-PODIUM
10
28.4000
20
17.0000
30
0.0
0
SEQEND
8
ENV-ENVELOPE-PODIUM
0
POLYLINE
8
ENV-ENVELOPE-PODIUM
66
1
70
1
10
0.0
20
0.0
30
0.0
0
VERTEX
8
ENV-ENVELOPE-PODIUM
10
31.2000
20
11.5000
30
0.0
0
VERTEX
8
ENV-ENVELOPE-PODIUM
10
33.7000
20
11.5000
30
0.0
0
VERTEX
8
ENV-ENVELOPE-PODIUM
10
33.7000
20
17.0000
30
0.0
0
VERTEX
8
ENV-ENVELOPE-PODIUM
10
31.2000
20
17.0000
30
0.0
0
SEQEND
8
ENV-ENVELOPE-PODIUM
0
POLYLINE
8
ENV-ENVELOPE-PODIUM
66
1
70
1
10
0.0
20
0.0
30
0.0
0
VERTEX
8
ENV-ENVELOPE-PODIUM
10
34.0000
20
11.5000
30
0.0
0
VERTEX
8
ENV-ENVELOPE-PODIUM
10
36.5000
20
11.5000
30
0.0
0
VERTEX
8
ENV-ENVELOPE-PODIUM
10
36.5000
20
17.0000
30
0.0
0
VERTEX
8
ENV-ENVELOPE-PODIUM
10
34.0000
20
17.0000
30
0.0
0
SEQEND
8
ENV-ENVELOPE-PODIUM
0
POLYLINE
8
ENV-ENVELOPE-PODIUM
66
1
70
1
10
0.0
20
0.0
30
0.0
0
VERTEX
8
ENV-ENVELOPE-PODIUM
10
36.8000
20
11.5000
30
0.0
0
VERTEX
8
ENV-ENVELOPE-PODIUM
10
39.3000
20
11.5000
30
0.0
0
VERTEX
8
ENV-ENVELOPE-PODIUM
10
39.3000
20
17.0000
30
0.0
0
VERTEX
8
ENV-ENVELOPE-PODIUM
10
36.8000
20
17.0000
30
0.0
0
SEQEND
8
ENV-ENVELOPE-PODIUM
0
POLYLINE
8
ENV-ENVELOPE-PODIUM
66
1
70
1
10
0.0
20
0.0
30
0.0
0
VERTEX
8
ENV-ENVELOPE-PODIUM
10
39.6000
20
11.5000
30
0.0
0
VERTEX
8
ENV-ENVELOPE-PODIUM
10
42.1000
20
11.5000
30
0.0
0
VERTEX
8
ENV-ENVELOPE-PODIUM
10
42.1000
20
17.0000
30
0.0
0
VERTEX
8
ENV-ENVELOPE-PODIUM
10
39.6000
20
17.0000
30
0.0
0
SEQEND
8
ENV-ENVELOPE-PODIUM
0
POLYLINE
8
ENV-ENVELOPE-PODIUM
66
1
70
1
10
0.0
20
0.0
30
0.0
0
VERTEX
8
ENV-ENVELOPE-PODIUM
10
42.4000
20
11.5000
30
0.0
0
VERTEX
8
ENV-ENVELOPE-PODIUM
10
44.9000
20
11.5000
30
0.0
0
VERTEX
8
ENV-ENVELOPE-PODIUM
10
44.9000
20
17.0000
30
0.0
0
VERTEX
8
ENV-ENVELOPE-PODIUM
10
42.4000
20
17.0000
30
0.0
0
SEQEND
8
ENV-ENVELOPE-PODIUM
0
POLYLINE
8
ENV-ENVELOPE-PODIUM
66
1
70
1
10
0.0
20
0.0
30
0.0
0
VERTEX
8
ENV-ENVELOPE-PODIUM
10
45.2000
20
11.5000
30
0.0
0
VERTEX
8
ENV-ENVELOPE-PODIUM
10
47.7000
20
11.5000
30
0.0
0
VERTEX
8
ENV-ENVELOPE-PODIUM
10
47.7000
20
17.0000
30
0.0
0
VERTEX
8
ENV-ENVELOPE-PODIUM
10
45.2000
20
17.0000
30
0.0
0
SEQEND
8
ENV-ENVELOPE-PODIUM
0
POLYLINE
8
ENV-ENVELOPE-PODIUM
66
1
70
1
10
0.0
20
0.0
30
0.0
0
VERTEX
8
ENV-ENVELOPE-PODIUM
10
48.0000
20
11.5000
30
0.0
0
VERTEX
8
ENV-ENVELOPE-PODIUM
10
50.5000
20
11.5000
30
0.0
0
VERTEX
8
ENV-ENVELOPE-PODIUM
10
50.5000
20
17.0000
30
0.0
0
VERTEX
8
ENV-ENVELOPE-PODIUM
10
48.0000
20
17.0000
30
0.0
0
SEQEND
8
ENV-ENVELOPE-PODIUM
0
POLYLINE
8
ENV-SETBACK-LINE
66
1
70
1
10
0.0
20
0.0
30
0.0
0
VERTEX
8
ENV-SETBACK-LINE
10
22.4250
20
0.0000
30
0.0
0
VERTEX
8
ENV-SETBACK-LINE
10
28.4250
20
0.0000
30
0.0
0
VERTEX
8
ENV-SETBACK-LINE
10
28.4250
20
1.0000
30
0.0
0
VERTEX
8
ENV-SETBACK-LINE
10
22.4250
20
1.0000
30
0.0
0
SEQEND
8
ENV-SETBACK-LINE
0
TEXT
8
ENV-ANNOTATION
10
0.0000
20
28.8480
30
0.0
40
0.5000
1
Plot 6211383 - 1365.23 sq.m - FAR 3.5
0
TEXT
8
ENV-ANNOTATION
10
0.0000
20
30.2480
30
0.0
40
0.5000
1
Parking: 32 bays at 42.66 sq.m/bay
0
TEXT
8
ENV-ANNOTATION
10
0.0000
20
-3.0000
30
0.0
40
0.4000
1
REGULATORY VALIDITY: NOT ASSESSED. Generated capacity study, not a submission drawing.
0
ENDSEC
0
EOF
